<svg xmlns="http://www.w3.org/2000/svg" width="249.84" height="53.755" viewBox="0 0 249.84 53.755"><g transform="translate(-47.552 -50.925)"><path d="M-105.75,0h10.7V-2.45h-7.8V-18.425h-2.9ZM-86.3.325a6.835,6.835,0,0,0,4.375-1.9h.1L-81.6,0h2.35V-8.275c0-3.65-1.575-5.825-5-5.825a10.532,10.532,0,0,0-5.55,1.8l1.075,1.95a7.561,7.561,0,0,1,3.975-1.4c2.025,0,2.6,1.4,2.625,3-5.725.625-8.225,2.15-8.225,5.1A3.8,3.8,0,0,0-86.3.325Zm.875-2.275c-1.225,0-2.15-.55-2.15-1.9,0-1.55,1.375-2.6,5.45-3.075V-3.55A4.847,4.847,0,0,1-85.425-1.95ZM-64.3,0h2.9V-6.975h2.775c4,0,6.925-1.85,6.925-5.875,0-4.15-2.925-5.575-7.025-5.575H-64.3Zm2.9-9.3v-6.775H-59c2.925,0,4.45.8,4.45,3.225S-55.95-9.3-58.9-9.3ZM-45.875,0H-43V-13.75h-2.875Zm1.425-16.325a1.674,1.674,0,0,0,1.8-1.725,1.668,1.668,0,0,0-1.8-1.7,1.648,1.648,0,0,0-1.775,1.7A1.654,1.654,0,0,0-44.45-16.325ZM-30.475.325a8.342,8.342,0,0,0,4.65-1.45l-1-1.825A5.838,5.838,0,0,1-30.1-1.925c-2.375,0-4.025-1.575-4.25-4.2h8.925a7.453,7.453,0,0,0,.15-1.475c0-3.875-1.975-6.5-5.625-6.5-3.2,0-6.275,2.775-6.275,7.225C-37.175-2.325-34.2.325-30.475.325Zm-3.9-8.45c.275-2.4,1.8-3.725,3.525-3.725,2,0,3.075,1.375,3.075,3.725ZM-19.575,0H-16.7V-8.575c.85-2.175,2.2-2.95,3.325-2.95A4.068,4.068,0,0,1-12-11.3l.525-2.5a3.421,3.421,0,0,0-1.55-.3c-1.475,0-2.925,1.05-3.9,2.825H-17l-.225-2.475h-2.35ZM-6.85,0h2.875V-8.575c.85-2.175,2.2-2.95,3.325-2.95A4.068,4.068,0,0,1,.725-11.3l.525-2.5A3.421,3.421,0,0,0-.3-14.1c-1.475,0-2.925,1.05-3.9,2.825h-.075L-4.5-13.75H-6.85ZM11.325.325a8.342,8.342,0,0,0,4.65-1.45l-1-1.825A5.838,5.838,0,0,1,11.7-1.925c-2.375,0-4.025-1.575-4.25-4.2h8.925a7.453,7.453,0,0,0,.15-1.475c0-3.875-1.975-6.5-5.625-6.5-3.2,0-6.275,2.775-6.275,7.225C4.625-2.325,7.6.325,11.325.325Zm-3.9-8.45c.275-2.4,1.8-3.725,3.525-3.725,2,0,3.075,1.375,3.075,3.725ZM46.775-1.1H34.85V-4.3H46.775ZM36.425-12.925h8.35v2.8h-8.35ZM47.1-8.225V-14.8H34.225v6.575H39.35c-.05.625-.125,1.3-.2,1.925H32.525V1.9H34.85V.925H46.775v.9H49.2V-6.3H41.45c.15-.6.3-1.275.475-1.925ZM41.775-18.75V-21h-2.45v2.25h-9.1v5.875H32.5v-3.75H48.825v3.75H51.2V-18.75ZM60.7-5.125V-7.25h4.95v2.125Zm4.95-5.95v2.05H60.7v-2.05Zm2.225-1.975h-9.35V1.85H60.7v-5.2h4.95V-.525c0,.325-.1.425-.45.45-.3.025-1.4.025-2.5-.025a9.74,9.74,0,0,1,.775,2,8.451,8.451,0,0,0,3.45-.4c.725-.325.95-.9.95-1.975ZM75.5-.75c0,.35-.125.45-.525.475C74.6-.25,73.25-.25,71.85-.3a8.1,8.1,0,0,1,.825,2.2,10.335,10.335,0,0,0,4-.425c.85-.35,1.125-.975,1.125-2.2v-12.8H75.5ZM72.675-12.825h-2.15V-2.65h2.15Zm1.175-4.35c.7-.95,1.4-2.05,2.075-3.125L73.4-21.075a23.647,23.647,0,0,1-2.2,3.9H64l1.275-.475a15.018,15.018,0,0,0-2.4-3.35l-2.175.75a16.632,16.632,0,0,1,2.075,3.075H57.05v2.125H79.325v-2.125Zm33.025,8.3H96.85v-8.2h8.6V-19.35H85.85v2.275h8.6v8.2h-9.9v2.35h9.9v8.5h2.4v-8.5h10.025ZM87.475-15.4A27.18,27.18,0,0,1,89.55-9.9l2.225-.75a25.069,25.069,0,0,0-2.2-5.4ZM101.25-9.875a47.968,47.968,0,0,0,2.925-5.6L101.7-16.15a33.536,33.536,0,0,1-2.45,5.625Z" transform="translate(173 72)" fill="#333"/><path d="M1.552,0H3.408V-4.464H5.184c2.56,0,4.432-1.184,4.432-3.76,0-2.656-1.872-3.568-4.5-3.568H1.552ZM3.408-5.952v-4.336H4.944c1.872,0,2.848.512,2.848,2.064S6.9-5.952,5.008-5.952ZM13.344,0h1.84V-5.488c.544-1.392,1.408-1.888,2.128-1.888a2.6,2.6,0,0,1,.88.144l.336-1.6a2.189,2.189,0,0,0-.992-.192,3.042,3.042,0,0,0-2.5,1.808h-.048L14.848-8.8h-1.5ZM24.976.208A5.339,5.339,0,0,0,27.952-.72l-.64-1.168a3.736,3.736,0,0,1-2.1.656A2.657,2.657,0,0,1,22.5-3.92h5.712a4.77,4.77,0,0,0,.1-.944c0-2.48-1.264-4.16-3.6-4.16-2.048,0-4.016,1.776-4.016,4.624C20.688-1.488,22.592.208,24.976.208ZM22.48-5.2a2.382,2.382,0,0,1,2.256-2.384c1.28,0,1.968.88,1.968,2.384ZM34.336.208c2.176,0,3.344-1.2,3.344-2.672,0-1.664-1.36-2.208-2.592-2.672-.96-.352-1.824-.64-1.824-1.392,0-.608.448-1.088,1.424-1.088a3.288,3.288,0,0,1,1.952.768L37.5-7.984a4.585,4.585,0,0,0-2.848-1.04c-1.952,0-3.136,1.1-3.136,2.576,0,1.488,1.3,2.112,2.48,2.56.944.368,1.936.72,1.936,1.52,0,.672-.5,1.184-1.552,1.184a3.988,3.988,0,0,1-2.5-1.008l-.864,1.184A5.45,5.45,0,0,0,34.336.208Zm10.56,0A5.339,5.339,0,0,0,47.872-.72l-.64-1.168a3.736,3.736,0,0,1-2.1.656,2.657,2.657,0,0,1-2.72-2.688h5.712a4.77,4.77,0,0,0,.1-.944c0-2.48-1.264-4.16-3.6-4.16-2.048,0-4.016,1.776-4.016,4.624C40.608-1.488,42.512.208,44.9.208ZM42.4-5.2a2.382,2.382,0,0,1,2.256-2.384c1.28,0,1.968.88,1.968,2.384ZM51.872,0h1.84V-6.24a2.948,2.948,0,0,1,2.144-1.2c1.04,0,1.488.608,1.488,2.128V0h1.84V-5.536c0-2.24-.832-3.488-2.7-3.488a4.193,4.193,0,0,0-2.912,1.44H53.52L53.376-8.8h-1.5ZM66.416.208a5.63,5.63,0,0,0,1.728-.32l-.336-1.36a2.624,2.624,0,0,1-.944.208c-.912,0-1.28-.544-1.28-1.6V-7.328h2.288V-8.8H65.584v-2.432H64.048L63.84-8.8l-1.376.1v1.376h1.28V-2.88C63.744-1.024,64.432.208,66.416.208Zm8.368,0A5.339,5.339,0,0,0,77.76-.72l-.64-1.168a3.736,3.736,0,0,1-2.1.656A2.657,2.657,0,0,1,72.3-3.92h5.712a4.77,4.77,0,0,0,.1-.944c0-2.48-1.264-4.16-3.6-4.16C72.464-9.024,70.5-7.248,70.5-4.4,70.5-1.488,72.4.208,74.784.208ZM72.288-5.2a2.382,2.382,0,0,1,2.256-2.384c1.28,0,1.968.88,1.968,2.384ZM84.8.208a3.688,3.688,0,0,0,2.56-1.2h.064L87.568,0h1.5V-12.752h-1.84v3.264l.08,1.456a3.4,3.4,0,0,0-2.368-.992c-1.968,0-3.776,1.776-3.776,4.624C81.168-1.472,82.592.208,84.8.208Zm.432-1.52c-1.376,0-2.16-1.1-2.16-3.1,0-1.9.992-3.072,2.224-3.072a2.76,2.76,0,0,1,1.936.8v4.3A2.586,2.586,0,0,1,85.232-1.312Zm17.5,1.52c1.984,0,3.792-1.728,3.792-4.752,0-2.7-1.264-4.48-3.488-4.48a4.2,4.2,0,0,0-2.624,1.152l.064-1.5v-3.376H98.64V0h1.44l.176-.912h.048A3.73,3.73,0,0,0,102.736.208Zm-.352-1.52a2.916,2.916,0,0,1-1.9-.8v-4.3a3,3,0,0,1,2.08-1.072c1.472,0,2.064,1.136,2.064,2.976C104.624-2.448,103.664-1.312,102.384-1.312Zm8.224,4.992c1.856,0,2.784-1.264,3.472-3.152L117.312-8.8H115.52l-1.408,4.528c-.224.8-.464,1.68-.688,2.48h-.08c-.272-.816-.544-1.7-.8-2.48L110.912-8.8h-1.888l3.488,8.736-.176.608c-.32.944-.88,1.648-1.84,1.648a2.384,2.384,0,0,1-.64-.128L109.5,3.5A3.129,3.129,0,0,0,110.608,3.68ZM125.872,0h1.76V-5.552c0-1.28-.144-2.64-.24-3.856h.08L128.7-6.944,132.608,0h1.9V-11.792h-1.76v5.5c0,1.28.144,2.7.24,3.92h-.08l-1.232-2.5-3.9-6.928h-1.9Zm13.184,0h1.84V-8.8h-1.84Zm.912-10.448a1.071,1.071,0,0,0,1.152-1.1,1.068,1.068,0,0,0-1.152-1.088,1.055,1.055,0,0,0-1.136,1.088A1.058,1.058,0,0,0,139.968-10.448ZM145.248,0h1.808V-2.288l1.472-1.7L150.912,0h2L149.6-5.216,152.576-8.8h-2.048L147.12-4.544h-.064v-8.208h-1.808Zm10.8,0h1.808V-2.288l1.472-1.7L161.712,0h2L160.4-5.216,163.376-8.8h-2.048L157.92-4.544h-.064v-8.208h-1.808Zm14.08.208A5.339,5.339,0,0,0,173.1-.72l-.64-1.168a3.736,3.736,0,0,1-2.1.656,2.657,2.657,0,0,1-2.72-2.688h5.712a4.769,4.769,0,0,0,.1-.944c0-2.48-1.264-4.16-3.6-4.16-2.048,0-4.016,1.776-4.016,4.624C165.84-1.488,167.744.208,170.128.208Zm-2.5-5.408a2.382,2.382,0,0,1,2.256-2.384c1.28,0,1.968.88,1.968,2.384ZM177.1,0h1.84V-6.24a2.949,2.949,0,0,1,2.144-1.2c1.04,0,1.488.608,1.488,2.128V0h1.84V-5.536c0-2.24-.832-3.488-2.7-3.488a4.193,4.193,0,0,0-2.912,1.44h-.048L178.608-8.8h-1.5Zm16.944,0H195.9V-3.552l1.808-2.224L201.04,0H203.1l-4.256-7.232,3.648-4.56h-2.064l-4.48,5.584H195.9v-5.584h-1.856ZM206.1,0h1.84V-8.8H206.1Zm.912-10.448a1.071,1.071,0,0,0,1.152-1.1,1.068,1.068,0,0,0-1.152-1.088,1.055,1.055,0,0,0-1.136,1.088A1.058,1.058,0,0,0,207.008-10.448ZM212.288,0H214.1V-2.288l1.472-1.7L217.952,0h2L216.64-5.216,219.616-8.8h-2.048L214.16-4.544H214.1v-8.208h-1.808Zm12.7.208a4.375,4.375,0,0,0,2.8-1.216h.064L228,0h1.5V-5.3c0-2.336-1.008-3.728-3.2-3.728a6.74,6.74,0,0,0-3.552,1.152l.688,1.248a4.839,4.839,0,0,1,2.544-.9c1.3,0,1.664.9,1.68,1.92C224-5.2,222.4-4.224,222.4-2.336A2.431,2.431,0,0,0,224.992.208Zm.56-1.456c-.784,0-1.376-.352-1.376-1.216,0-.992.88-1.664,3.488-1.968v2.16A3.1,3.1,0,0,1,225.552-1.248ZM233.712,0h1.808V-2.288l1.472-1.7L239.376,0h2l-3.312-5.216L241.04-8.8h-2.048l-3.408,4.256h-.064v-8.208h-1.808Zm13.12.208A3.684,3.684,0,0,0,249.7-1.328h.048L249.888,0h1.5V-8.8h-1.84v6.112c-.736.928-1.3,1.312-2.112,1.312-1.04,0-1.472-.608-1.472-2.112V-8.8h-1.84v5.536C244.128-1.024,244.944.208,246.832.208Z" transform="translate(46 101)" fill="#333"/></g></svg>