<svg xmlns="http://www.w3.org/2000/svg" width="249.84" height="53.755"><path d="M19.698 21.075h10.7v-2.45h-7.8V2.65h-2.9zm19.45.325a6.835 6.835 0 004.375-1.9h.1l.225 1.575h2.35V12.8c0-3.65-1.575-5.825-5-5.825a10.532 10.532 0 00-5.55 1.8l1.075 1.95a7.561 7.561 0 013.975-1.4c2.025 0 2.6 1.4 2.625 3-5.725.625-8.225 2.15-8.225 5.1a3.8 3.8 0 004.05 3.975zm.875-2.275c-1.225 0-2.15-.55-2.15-1.9 0-1.55 1.375-2.6 5.45-3.075v3.375a4.847 4.847 0 01-3.3 1.6zm21.125 1.95h2.9V14.1h2.775c4 0 6.925-1.85 6.925-5.875 0-4.15-2.925-5.575-7.025-5.575h-5.575zm2.9-9.3V5h2.4c2.925 0 4.45.8 4.45 3.225s-1.4 3.55-4.35 3.55zm15.525 9.3h2.875V7.325h-2.875zM80.998 4.75a1.674 1.674 0 001.8-1.725 1.668 1.668 0 00-1.8-1.7 1.648 1.648 0 00-1.775 1.7 1.654 1.654 0 001.775 1.725zM94.973 21.4a8.342 8.342 0 004.65-1.45l-1-1.825a5.838 5.838 0 01-3.275 1.025c-2.375 0-4.025-1.575-4.25-4.2h8.925a7.453 7.453 0 00.15-1.475c0-3.875-1.975-6.5-5.625-6.5-3.2 0-6.275 2.775-6.275 7.225 0 4.55 2.975 7.2 6.7 7.2zm-3.9-8.45c.275-2.4 1.8-3.725 3.525-3.725 2 0 3.075 1.375 3.075 3.725zm14.8 8.125h2.875V12.5c.85-2.175 2.2-2.95 3.325-2.95a4.068 4.068 0 011.375.225l.525-2.5a3.421 3.421 0 00-1.55-.3c-1.475 0-2.925 1.05-3.9 2.825h-.075l-.225-2.475h-2.35zm12.725 0h2.875V12.5c.85-2.175 2.2-2.95 3.325-2.95a4.068 4.068 0 011.375.225l.525-2.5a3.421 3.421 0 00-1.55-.3c-1.475 0-2.925 1.05-3.9 2.825h-.075l-.225-2.475h-2.35zm18.175.325a8.342 8.342 0 004.65-1.45l-1-1.825a5.838 5.838 0 01-3.275 1.025c-2.375 0-4.025-1.575-4.25-4.2h8.925a7.453 7.453 0 00.15-1.475c0-3.875-1.975-6.5-5.625-6.5-3.2 0-6.275 2.775-6.275 7.225 0 4.55 2.975 7.2 6.7 7.2zm-3.9-8.45c.275-2.4 1.8-3.725 3.525-3.725 2 0 3.075 1.375 3.075 3.725zm39.35 7.025h-11.925v-3.2h11.925zM161.873 8.15h8.35v2.8h-8.35zm10.675 4.7V6.275h-12.875v6.575h5.125c-.05.625-.125 1.3-.2 1.925h-6.625v8.2h2.325V22h11.925v.9h2.425v-8.125h-7.75c.15-.6.3-1.275.475-1.925zm-5.325-10.525V.075h-2.45v2.25h-9.1V8.2h2.275V4.45h16.325V8.2h2.375V2.325zm18.925 13.625v-2.125h4.95v2.125zm4.95-5.95v2.05h-4.95V10zm2.225-1.975h-9.35v14.9h2.175v-5.2h4.95v2.825c0 .325-.1.425-.45.45-.3.025-1.4.025-2.5-.025a9.74 9.74 0 01.775 2 8.451 8.451 0 003.45-.4c.725-.325.95-.9.95-1.975zm7.625 12.3c0 .35-.125.45-.525.475-.375.025-1.725.025-3.125-.025a8.1 8.1 0 01.825 2.2 10.335 10.335 0 004-.425c.85-.35 1.125-.975 1.125-2.2V7.55h-2.3zM198.123 8.25h-2.15v10.175h2.15zm1.175-4.35c.7-.95 1.4-2.05 2.075-3.125L198.848 0a23.647 23.647 0 01-2.2 3.9h-7.2l1.275-.475a15.018 15.018 0 00-2.4-3.35l-2.175.75a16.632 16.632 0 012.075 3.075h-5.725v2.125h22.275V3.9zm33.025 8.3h-10.025V4h8.6V1.725h-19.6V4h8.6v8.2h-9.9v2.35h9.9v8.5h2.4v-8.5h10.025zm-19.4-6.525a27.18 27.18 0 012.075 5.5l2.225-.75a25.069 25.069 0 00-2.2-5.4zm13.775 5.525a47.968 47.968 0 002.925-5.6l-2.475-.675a33.536 33.536 0 01-2.45 5.625zM0 50.075h1.856v-4.464h1.776c2.56 0 4.432-1.184 4.432-3.76 0-2.656-1.872-3.568-4.5-3.568H0zm1.856-5.952v-4.336h1.536c1.872 0 2.848.512 2.848 2.064s-.892 2.272-2.784 2.272zm9.936 5.952h1.84v-5.488c.544-1.392 1.408-1.888 2.128-1.888a2.6 2.6 0 01.88.144l.336-1.6a2.189 2.189 0 00-.992-.192 3.042 3.042 0 00-2.5 1.808h-.048l-.14-1.584h-1.5zm11.632.208a5.339 5.339 0 002.976-.928l-.64-1.168a3.736 3.736 0 01-2.1.656 2.657 2.657 0 01-2.712-2.688h5.712a4.77 4.77 0 00.1-.944c0-2.48-1.264-4.16-3.6-4.16-2.048 0-4.016 1.776-4.016 4.624-.008 2.912 1.896 4.608 4.28 4.608zm-2.496-5.408a2.382 2.382 0 012.256-2.384c1.28 0 1.968.88 1.968 2.384zm11.856 5.408c2.176 0 3.344-1.2 3.344-2.672 0-1.664-1.36-2.208-2.592-2.672-.96-.352-1.824-.64-1.824-1.392 0-.608.448-1.088 1.424-1.088a3.288 3.288 0 011.952.768l.86-1.136a4.585 4.585 0 00-2.848-1.04c-1.952 0-3.136 1.1-3.136 2.576 0 1.488 1.3 2.112 2.48 2.56.944.368 1.936.72 1.936 1.52 0 .672-.5 1.184-1.552 1.184a3.988 3.988 0 01-2.5-1.008l-.864 1.184a5.45 5.45 0 003.32 1.216zm10.56 0a5.339 5.339 0 002.976-.928l-.64-1.168a3.736 3.736 0 01-2.1.656 2.657 2.657 0 01-2.72-2.688h5.712a4.77 4.77 0 00.1-.944c0-2.48-1.264-4.16-3.6-4.16-2.048 0-4.016 1.776-4.016 4.624 0 2.912 1.904 4.608 4.292 4.608zm-2.496-5.408a2.382 2.382 0 012.256-2.384c1.28 0 1.968.88 1.968 2.384zm9.472 5.2h1.84v-6.24a2.948 2.948 0 012.144-1.2c1.04 0 1.488.608 1.488 2.128v5.312h1.84v-5.536c0-2.24-.832-3.488-2.7-3.488a4.193 4.193 0 00-2.912 1.44h-.052l-.144-1.216h-1.5zm14.544.208a5.63 5.63 0 001.728-.32l-.336-1.36a2.624 2.624 0 01-.944.208c-.912 0-1.28-.544-1.28-1.6v-4.464h2.288v-1.472h-2.288v-2.432h-1.536l-.208 2.432-1.376.1v1.376h1.28v4.444c0 1.856.688 3.088 2.672 3.088zm8.368 0a5.339 5.339 0 002.976-.928l-.64-1.168a3.736 3.736 0 01-2.1.656 2.657 2.657 0 01-2.72-2.688h5.712a4.77 4.77 0 00.1-.944c0-2.48-1.264-4.16-3.6-4.16-2.048 0-4.012 1.776-4.012 4.624 0 2.912 1.9 4.608 4.284 4.608zm-2.496-5.408a2.382 2.382 0 012.256-2.384c1.28 0 1.968.88 1.968 2.384zm12.512 5.408a3.688 3.688 0 002.56-1.2h.064l.144.992h1.5V37.323h-1.84v3.264l.08 1.456a3.4 3.4 0 00-2.368-.992c-1.968 0-3.776 1.776-3.776 4.624.004 2.928 1.428 4.608 3.636 4.608zm.432-1.52c-1.376 0-2.16-1.1-2.16-3.1 0-1.9.992-3.072 2.224-3.072a2.76 2.76 0 011.936.8v4.3a2.586 2.586 0 01-2 1.072zm17.5 1.52c1.984 0 3.792-1.728 3.792-4.752 0-2.7-1.264-4.48-3.488-4.48a4.2 4.2 0 00-2.624 1.152l.064-1.5v-3.376h-1.836v12.748h1.44l.176-.912h.048a3.73 3.73 0 002.432 1.12zm-.352-1.52a2.916 2.916 0 01-1.9-.8v-4.3a3 3 0 012.08-1.072c1.472 0 2.064 1.136 2.064 2.976 0 2.06-.96 3.196-2.24 3.196zm8.224 4.992c1.856 0 2.784-1.264 3.472-3.152l3.236-9.328h-1.792l-1.408 4.528c-.224.8-.464 1.68-.688 2.48h-.08c-.272-.816-.544-1.7-.8-2.48l-1.632-4.528h-1.888l3.488 8.736-.176.608c-.32.944-.88 1.648-1.84 1.648a2.384 2.384 0 01-.64-.128l-.356 1.436a3.129 3.129 0 001.108.18zm15.268-3.68h1.76v-5.552c0-1.28-.144-2.64-.24-3.856h.08l1.228 2.464 3.908 6.944h1.9V38.283h-1.76v5.5c0 1.28.144 2.7.24 3.92h-.08l-1.232-2.5-3.9-6.928h-1.9zm13.184 0h1.84v-8.8h-1.84zm.912-10.448a1.071 1.071 0 001.152-1.1 1.068 1.068 0 00-1.152-1.088 1.055 1.055 0 00-1.136 1.088 1.058 1.058 0 001.136 1.1zm5.28 10.448h1.808v-2.288l1.472-1.7 2.384 3.988h2l-3.312-5.216 2.976-3.584h-2.048l-3.408 4.256h-.064v-8.208h-1.808zm10.8 0h1.808v-2.288l1.472-1.7 2.384 3.988h2l-3.312-5.216 2.976-3.584h-2.048l-3.408 4.256h-.064v-8.208h-1.808zm14.08.208a5.339 5.339 0 002.972-.928l-.64-1.168a3.736 3.736 0 01-2.1.656 2.657 2.657 0 01-2.72-2.688h5.712a4.769 4.769 0 00.1-.944c0-2.48-1.264-4.16-3.6-4.16-2.048 0-4.016 1.776-4.016 4.624.004 2.912 1.908 4.608 4.292 4.608zm-2.5-5.408a2.382 2.382 0 012.256-2.384c1.28 0 1.968.88 1.968 2.384zm9.472 5.2h1.84v-6.24a2.949 2.949 0 012.144-1.2c1.04 0 1.488.608 1.488 2.128v5.312h1.84v-5.536c0-2.24-.832-3.488-2.7-3.488a4.193 4.193 0 00-2.912 1.44h-.048l-.144-1.216h-1.5zm16.944 0h1.856v-3.552l1.808-2.224 3.332 5.776h2.06l-4.256-7.232 3.648-4.56h-2.064l-4.48 5.584h-.048v-5.584h-1.856zm12.056 0h1.84v-8.8h-1.84zm.912-10.448a1.071 1.071 0 001.152-1.1 1.068 1.068 0 00-1.152-1.088 1.055 1.055 0 00-1.136 1.088 1.058 1.058 0 001.132 1.1zm5.276 10.448h1.812v-2.288l1.472-1.7 2.38 3.988h2l-3.312-5.216 2.976-3.584h-2.048l-3.408 4.256h-.06v-8.208h-1.808zm12.7.208a4.375 4.375 0 002.8-1.216h.064l.148 1.008h1.5v-5.3c0-2.336-1.008-3.728-3.2-3.728a6.74 6.74 0 00-3.552 1.152l.688 1.248a4.839 4.839 0 012.544-.9c1.3 0 1.664.9 1.68 1.92-3.66.408-5.26 1.384-5.26 3.272a2.431 2.431 0 002.592 2.544zm.56-1.456c-.784 0-1.376-.352-1.376-1.216 0-.992.88-1.664 3.488-1.968v2.16A3.1 3.1 0 01224 48.827zm8.164 1.248h1.808v-2.288l1.472-1.7 2.384 3.988h2l-3.312-5.216 2.976-3.584h-2.048l-3.408 4.256h-.064v-8.208h-1.808zm13.12.208a3.684 3.684 0 002.868-1.536h.048l.14 1.328h1.5v-8.8h-1.84v6.112c-.736.928-1.3 1.312-2.112 1.312-1.04 0-1.472-.608-1.472-2.112v-5.312h-1.84v5.536c.004 2.24.82 3.472 2.708 3.472z" fill="#333"/></svg>